<svg aria-hidden="true" style="position: absolute; width: 0; height: 0; overflow: hidden;" version="1.1" xmlns="http://www.w3.org/2000/svg" xmlns:xlink="http://www.w3.org/1999/xlink">
<defs>
<symbol id="paper-plane" viewBox="0 0 50 50">
<path d="M49.219 0.307c0.586 0.419 0.865 1.088 0.753 1.786l-7.143 42.857c-0.084 0.53-0.419 0.977-0.893 1.256-0.251 0.14-0.558 0.223-0.865 0.223-0.223 0-0.446-0.056-0.67-0.14l-12.64-5.162-6.752 8.231c-0.335 0.419-0.837 0.642-1.367 0.642-0.195 0-0.419-0.028-0.614-0.112-0.698-0.251-1.172-0.921-1.172-1.674v-9.738l24.107-29.548-29.827 25.809-11.021-4.52c-0.642-0.251-1.060-0.837-1.116-1.535-0.028-0.67 0.307-1.311 0.893-1.646l46.429-26.786c0.279-0.167 0.586-0.251 0.893-0.251 0.363 0 0.725 0.112 1.004 0.307z"></path>
</symbol>
</defs>
</svg>
